<?xml version="1.0" encoding="utf-8"?>
<!-- Generator: Adobe Illustrator 23.0.3, SVG Export Plug-In . SVG Version: 6.00 Build 0)  -->
<svg version="1.1" id="Layer_1" xmlns="http://www.w3.org/2000/svg" xmlns:xlink="http://www.w3.org/1999/xlink" x="0px" y="0px"
	 viewBox="0 0 841.89 701.62" style="enable-background:new 0 0 841.89 701.62;" xml:space="preserve">
<style type="text/css">
	.st0{fill:#FDBA22;}
</style>
<g>
	<path d="M226.33,277.19H105.51L82.54,346.1H9.28L132.02,16.37c1.05-2.82,3.74-4.69,6.75-4.69h53.85c3.01,0,5.7,1.87,6.75,4.68
		L322.8,346.1h-73.27L226.33,277.19z M124.12,221.38h83.61L165.69,96.2L124.12,221.38z"/>
	<path d="M419.73,346.1h-66.61L353.1,18.64c0-3.54,2.87-6.41,6.41-6.41h53.8c3.54,0,6.41,2.87,6.41,6.41L419.73,346.1z"/>
	<path d="M455.14,219.54c0-24.65,4.74-46.63,14.24-65.92c9.49-19.29,23.16-34.22,41-44.79c17.84-10.57,38.55-15.85,62.13-15.85
		c33.53,0,60.91,10.26,82.12,30.78c21.21,20.52,33.04,48.39,35.48,83.61l0.46,17c0,38.13-10.64,68.71-31.92,91.76
		c-21.29,23.04-49.85,34.57-85.68,34.57c-35.83,0-64.43-11.48-85.78-34.45c-21.37-22.97-32.04-54.21-32.04-93.71V219.54z
		 M521.51,224.25c0,23.62,4.44,41.68,13.32,54.18c8.88,12.5,21.59,18.75,38.13,18.75c16.08,0,28.63-6.17,37.67-18.52
		s13.56-32.09,13.56-59.24c0-23.16-4.52-41.1-13.56-53.83s-21.74-19.1-38.13-19.1c-16.23,0-28.79,6.33-37.67,18.98
		C525.96,178.14,521.51,197.73,521.51,224.25z"/>
	<path d="M156.5,613.98c0-8.11-4.01-14.51-12.06-19.18c-8.03-4.67-20.95-8.85-38.7-12.52c-59.11-12.4-88.66-37.51-88.66-75.34
		c0-22.05,9.15-40.46,27.45-55.24c18.29-14.77,42.21-22.16,71.78-22.16c31.54,0,56.76,7.43,75.69,22.28
		c18.91,14.86,28.36,34.15,28.36,57.88h-66.37c0-9.49-3.07-17.34-9.19-23.55c-6.13-6.2-15.71-9.3-28.72-9.3
		c-11.17,0-19.83,2.53-25.95,7.58c-6.13,5.05-9.19,11.48-9.19,19.29c0,7.35,3.48,13.28,10.45,17.8c6.97,4.52,18.71,8.42,35.25,11.72
		c16.54,3.29,30.47,7,41.8,11.14c35.06,12.86,52.61,35.14,52.61,66.84c0,22.66-9.73,41-29.18,55.01
		c-19.44,14.02-44.56,21.02-75.34,21.02c-20.82,0-39.31-3.71-55.46-11.14c-16.17-7.43-28.83-17.61-38.02-30.56
		c-9.19-12.94-13.78-26.9-13.78-41.92h62.94c0.61,11.79,4.97,20.83,13.09,27.1c8.12,6.28,18.98,9.42,32.62,9.42
		c12.71,0,22.32-2.41,28.83-7.23C153.25,628.1,156.5,621.79,156.5,613.98z"/>
	<path d="M407.79,682.66c-3.07-5.97-5.28-13.4-6.65-22.28c-16.08,17.92-36.99,26.87-62.71,26.87c-24.35,0-44.52-7.04-60.53-21.13
		c-15.99-14.09-24-31.85-24-53.29c0-26.33,9.76-46.55,29.29-60.64c19.52-14.09,47.74-21.21,84.64-21.36h30.56v-14.24
		c0-11.48-2.95-20.67-8.85-27.56c-5.89-6.89-15.2-10.34-27.9-10.34c-11.19,0-19.95,2.68-26.31,8.04
		c-6.34,5.36-9.52,12.71-9.52,22.05h-66.39c0-14.39,4.44-27.71,13.32-39.97c8.88-12.25,21.44-21.86,37.67-28.82
		c16.23-6.97,34.45-10.45,54.67-10.45c30.63,0,54.94,7.7,72.93,23.08c17.99,15.4,26.99,37.02,26.99,64.89v107.72
		c0.15,23.58,3.44,41.42,9.87,53.52v3.9H407.79z M352.9,636.49c9.8,0,18.83-2.18,27.1-6.55c8.27-4.36,14.39-10.22,18.38-17.57
		v-42.72h-24.81c-33.24,0-50.92,11.48-53.06,34.45l-0.22,3.9c0,8.27,2.91,15.09,8.73,20.44
		C334.82,633.81,342.79,636.49,352.9,636.49z"/>
	<path d="M565.72,434.03c3.82,0,6.98,2.98,7.2,6.8l1.25,21.91c17.77-22.2,41.58-33.31,71.44-33.31c26.33,0,45.94,7.73,58.8,23.2
		c12.86,15.47,19.44,38.59,19.75,69.37v160.55h-66.39V523.61c0-14.09-3.07-24.31-9.19-30.67c-6.12-6.35-16.3-9.53-30.54-9.53
		c-18.69,0-32.7,7.96-42.04,23.89v175.25h-66.37V434.03H565.72z"/>
	<path class="st0" d="M758.13,647.41c0-10.57,3.56-19.14,10.68-25.73c7.13-6.58,16.04-9.88,26.76-9.88c10.88,0,19.88,3.3,26.99,9.88
		c7.13,6.59,10.68,15.16,10.68,25.73c0,10.42-3.53,18.87-10.57,25.38c-7.04,6.51-16.08,9.76-27.1,9.76
		c-10.88,0-19.83-3.25-26.87-9.76C761.65,666.28,758.13,657.83,758.13,647.41z"/>
</g>
</svg>
