<?xml version="1.0" encoding="utf-8"?>
<!-- Generator: Adobe Illustrator 23.0.3, SVG Export Plug-In . SVG Version: 6.00 Build 0)  -->
<svg version="1.1" id="Layer_1" xmlns="http://www.w3.org/2000/svg" xmlns:xlink="http://www.w3.org/1999/xlink" x="0px" y="0px"
	 viewBox="0 0 752.17 595.28" style="enable-background:new 0 0 752.17 595.28;" xml:space="preserve">
<style type="text/css">
	.st0{fill:#FDBA22;}
</style>
<g>
	<path d="M206.11,236.31H102.59l-19.68,59.04H20.13L125.3,12.82c0.9-2.42,3.21-4.02,5.79-4.02h46.14c2.58,0,4.88,1.6,5.78,4.01
		l105.75,282.54h-62.78L206.11,236.31z M118.54,188.49h71.64L154.15,81.23L118.54,188.49z"/>
	<path d="M371.82,295.35h-57.07l-0.02-280.58c0-3.03,2.46-5.49,5.49-5.49h46.1c3.03,0,5.49,2.46,5.49,5.49L371.82,295.35z"/>
	<path d="M402.16,186.91c0-21.12,4.06-39.95,12.2-56.48c8.13-16.53,19.84-29.32,35.13-38.38s33.03-13.58,53.23-13.58
		c28.73,0,52.19,8.79,70.36,26.37c18.17,17.59,28.31,41.46,30.4,71.64l0.39,14.56c0,32.67-9.12,58.88-27.35,78.63
		c-18.24,19.74-42.71,29.62-73.41,29.62s-55.2-9.84-73.5-29.52c-18.31-19.68-27.46-46.45-27.46-80.3V186.91z M459.03,190.95
		c0,20.24,3.81,35.71,11.41,46.42c7.61,10.71,18.5,16.06,32.67,16.06c13.78,0,24.53-5.29,32.28-15.87s11.62-27.49,11.62-50.76
		c0-19.84-3.87-35.22-11.62-46.12c-7.74-10.9-18.63-16.36-32.67-16.36c-13.9,0-24.67,5.42-32.28,16.26
		C462.84,151.43,459.03,168.22,459.03,190.95z"/>
	<path d="M146.28,524.88c0-6.95-3.44-12.43-10.33-16.43c-6.88-4.01-17.95-7.58-33.16-10.73c-50.65-10.63-75.97-32.14-75.97-64.55
		c0-18.89,7.84-34.67,23.52-47.33c15.67-12.66,36.17-18.99,61.5-18.99c27.02,0,48.64,6.37,64.85,19.09
		c16.2,12.73,24.3,29.26,24.3,49.6h-56.87c0-8.13-2.63-14.86-7.87-20.18c-5.26-5.31-13.46-7.97-24.61-7.97
		c-9.57,0-16.99,2.16-22.23,6.49c-5.26,4.33-7.87,9.84-7.87,16.53c0,6.3,2.98,11.38,8.96,15.25c5.97,3.87,16.03,7.22,30.2,10.04
		c14.17,2.82,26.11,6,35.82,9.54c30.04,11.02,45.07,30.11,45.07,57.27c0,19.42-8.34,35.13-25,47.13
		c-16.66,12.01-38.18,18.01-64.55,18.01c-17.84,0-33.68-3.18-47.52-9.54c-13.85-6.37-24.7-15.09-32.57-26.18
		c-7.87-11.09-11.81-23.05-11.81-35.91h53.93c0.52,10.11,4.26,17.85,11.21,23.22c6.96,5.38,16.27,8.07,27.95,8.07
		c10.89,0,19.13-2.07,24.7-6.2C143.49,536.98,146.28,531.57,146.28,524.88z"/>
	<path d="M361.59,583.73c-2.63-5.12-4.52-11.48-5.7-19.09c-13.78,15.35-31.69,23.03-53.73,23.03c-20.86,0-38.15-6.03-51.86-18.11
		c-13.7-12.07-20.56-27.29-20.56-45.66c0-22.56,8.36-39.88,25.1-51.96c16.72-12.07,40.9-18.17,72.52-18.3h26.18v-12.2
		c0-9.84-2.53-17.71-7.59-23.62c-5.04-5.9-13.02-8.86-23.9-8.86c-9.59,0-17.1,2.3-22.54,6.89c-5.44,4.6-8.16,10.89-8.16,18.89
		h-56.88c0-12.33,3.81-23.74,11.41-34.24c7.61-10.49,18.37-18.73,32.28-24.7c13.9-5.97,29.52-8.96,46.84-8.96
		c26.24,0,47.07,6.6,62.49,19.78c15.41,13.19,23.13,31.72,23.13,55.6v92.3c0.13,20.21,2.95,35.49,8.46,45.86v3.35H361.59z
		 M314.56,544.17c8.39,0,16.14-1.87,23.22-5.61c7.09-3.73,12.33-8.76,15.74-15.05V486.9h-21.26c-28.48,0-43.63,9.84-45.47,29.52
		l-0.19,3.35c0,7.09,2.49,12.93,7.48,17.52C299.07,541.88,305.9,544.17,314.56,544.17z"/>
	<path d="M496.91,370.69c3.27,0,5.98,2.56,6.17,5.82l1.07,18.78c15.22-19.02,35.63-28.54,61.21-28.54
		c22.56,0,39.36,6.63,50.38,19.88c11.02,13.26,16.66,33.06,16.93,59.44v137.57h-56.88V447.45c0-12.07-2.63-20.83-7.87-26.28
		c-5.24-5.44-13.97-8.16-26.17-8.16c-16.01,0-28.02,6.82-36.02,20.47v150.16h-56.87V370.69H496.91z"/>
	<path class="st0" d="M661.78,553.53c0-9.05,3.05-16.4,9.15-22.04c6.11-5.64,13.74-8.46,22.93-8.46c9.32,0,17.03,2.82,23.13,8.46
		c6.11,5.64,9.15,12.99,9.15,22.04c0,8.93-3.02,16.17-9.05,21.74c-6.03,5.58-13.78,8.37-23.22,8.37c-9.32,0-16.99-2.79-23.02-8.37
		C664.79,569.7,661.78,562.45,661.78,553.53z"/>
</g>
</svg>
