<?xml version="1.0" encoding="utf-8"?>
<!-- Generator: Adobe Illustrator 23.0.3, SVG Export Plug-In . SVG Version: 6.00 Build 0)  -->
<svg version="1.1" id="Layer_1" xmlns="http://www.w3.org/2000/svg" xmlns:xlink="http://www.w3.org/1999/xlink" x="0px" y="0px"
	 viewBox="0 0 1958.81 455.03" style="enable-background:new 0 0 1958.81 455.03;" xml:space="preserve">
<style type="text/css">
	.st0{fill:#FDBA22;}
</style>
<g>
	<path class="st0" d="M289.92,351.12H137.3l-29.02,87.05H15.74L170.79,21.64c1.33-3.56,4.73-5.93,8.53-5.93h68.02
		c3.8,0,7.2,2.36,8.53,5.91l155.91,416.55h-92.55L289.92,351.12z M160.81,280.61h105.61l-53.11-158.13L160.81,280.61z"/>
	<path class="st0" d="M534.23,438.17h-84.14l-0.02-413.66c0-4.47,3.62-8.09,8.09-8.09h67.96c4.47,0,8.09,3.62,8.09,8.09
		L534.23,438.17z"/>
	<path class="st0" d="M578.96,278.29c0-31.14,5.99-58.9,17.99-83.27c11.98-24.37,29.25-43.23,51.79-56.58
		c22.54-13.35,48.7-20.02,78.48-20.02c42.36,0,76.94,12.96,103.73,38.88c26.79,25.93,41.73,61.13,44.82,105.61l0.58,21.47
		c0,48.16-13.44,86.8-40.32,115.92c-26.9,29.11-62.97,43.66-108.23,43.66s-81.38-14.51-108.36-43.52
		c-26.99-29.02-40.48-68.48-40.48-118.38V278.29z M662.81,284.25c0,29.84,5.61,52.65,16.83,68.44
		c11.21,15.79,27.27,23.68,48.16,23.68c20.31,0,36.17-7.79,47.58-23.39c11.42-15.6,17.13-40.53,17.13-74.83
		c0-29.25-5.71-51.92-17.13-68c-11.42-16.08-27.46-24.12-48.16-24.12c-20.5,0-36.37,7.99-47.58,23.97
		C668.42,225.99,662.81,250.74,662.81,284.25z"/>
	<path class="st0" d="M1091.88,351.48c0-10.25-5.07-18.33-15.23-24.22c-10.15-5.9-26.46-11.17-48.89-15.82
		c-74.67-15.67-112-47.39-112-95.17c0-27.85,11.56-51.11,34.68-69.79c23.1-18.66,53.32-28,90.67-28c39.84,0,71.71,9.39,95.61,28.14
		c23.89,18.77,35.82,43.14,35.82,73.12h-83.85c0-11.99-3.87-21.9-11.61-29.74c-7.75-7.83-19.84-11.75-36.28-11.75
		c-14.12,0-25.05,3.19-32.78,9.57c-7.75,6.38-11.61,14.51-11.61,24.37c0,9.28,4.39,16.78,13.21,22.48
		c8.8,5.71,23.64,10.64,44.53,14.81c20.89,4.16,38.49,8.85,52.81,14.07c44.29,16.25,66.45,44.39,66.45,84.43
		c0,28.63-12.3,51.8-36.86,69.49c-24.56,17.71-56.29,26.55-95.17,26.55c-26.3,0-49.65-4.69-70.06-14.07
		c-20.42-9.39-36.42-22.25-48.02-38.6c-11.61-16.34-17.41-33.99-17.41-52.95h79.5c0.77,14.9,6.27,26.31,16.53,34.24
		c10.26,7.94,23.98,11.9,41.2,11.9c16.06,0,28.2-3.05,36.42-9.14C1087.77,369.32,1091.88,361.34,1091.88,351.48z"/>
	<path class="st0" d="M1409.31,438.23c-3.87-7.54-6.67-16.92-8.41-28.14c-20.31,22.63-46.72,33.95-79.22,33.95
		c-30.76,0-56.24-8.89-76.46-26.69c-20.2-17.79-30.32-40.23-30.32-67.31c0-33.27,12.33-58.8,37-76.6
		c24.65-17.79,60.3-26.79,106.92-26.98h38.6v-17.99c0-14.51-3.73-26.11-11.18-34.82c-7.43-8.7-19.2-13.06-35.24-13.06
		c-14.13,0-25.2,3.39-33.23,10.16c-8.01,6.78-12.03,16.06-12.03,27.85h-83.86c0-18.18,5.61-35.01,16.83-50.49
		c11.21-15.47,27.09-27.61,47.58-36.41c20.5-8.81,43.52-13.21,69.06-13.21c38.69,0,69.4,9.72,92.13,29.16
		c22.73,19.45,34.1,46.77,34.1,81.97v136.08c0.19,29.79,4.34,52.33,12.47,67.61v4.93H1409.31z M1339.97,379.91
		c12.37,0,23.79-2.75,34.24-8.27c10.45-5.51,18.18-12.91,23.21-22.19v-53.97h-31.34c-41.99,0-64.32,14.51-67.03,43.52l-0.28,4.93
		c0,10.45,3.67,19.06,11.03,25.82C1317.13,376.53,1327.2,379.91,1339.97,379.91z"/>
	<path class="st0" d="M1608.81,124.16c4.83,0,8.82,3.77,9.09,8.59l1.58,27.68c22.44-28.04,52.53-42.07,90.24-42.07
		c33.27,0,58.03,9.77,74.28,29.31c16.25,19.54,24.56,48.75,24.95,87.63V438.1h-83.86V237.32c0-17.79-3.87-30.71-11.61-38.74
		c-7.73-8.02-20.59-12.04-38.58-12.04c-23.6,0-41.31,10.06-53.11,30.18V438.1h-83.85V124.16H1608.81z"/>
	<path class="st0" d="M1846.59,396.42c0-13.35,4.5-24.18,13.49-32.5c9-8.31,20.26-12.48,33.8-12.48c13.74,0,25.11,4.16,34.1,12.48
		c9,8.32,13.49,19.15,13.49,32.5c0,13.16-4.45,23.84-13.35,32.06c-8.89,8.23-20.31,12.34-34.24,12.34
		c-13.74,0-25.05-4.11-33.94-12.34C1851.03,420.26,1846.59,409.58,1846.59,396.42z"/>
</g>
<rect x="82.52" y="-679.49" class="st0" width="1570.97" height="403.26"/>
</svg>
