<?xml version="1.0" standalone="no"?>
<!DOCTYPE svg PUBLIC "-//W3C//DTD SVG 20010904//EN"
 "http://www.w3.org/TR/2001/REC-SVG-20010904/DTD/svg10.dtd">
<svg version="1.0" xmlns="http://www.w3.org/2000/svg"
 width="752.000000pt" height="752.000000pt" viewBox="0 0 752.000000 752.000000"
 preserveAspectRatio="xMidYMid meet">
<metadata>
Created by potrace 1.11, written by Peter Selinger 2001-2013
</metadata>
<g transform="translate(0.000000,752.000000) scale(0.100000,-0.100000)"
fill="#000000" stroke="none">
<path d="M1292 6639 c-33 -12 -19 21 -263 -639 -27 -74 -54 -144 -58 -155 -5
-11 -14 -36 -21 -55 -7 -19 -19 -50 -27 -68 -8 -18 -16 -40 -18 -50 -3 -17
-30 -91 -46 -127 -11 -26 -180 -477 -183 -490 -2 -11 -37 -103 -57 -150 -6
-16 -13 -37 -15 -45 -2 -8 -10 -30 -18 -50 -19 -46 -96 -251 -101 -270 -5 -18
-184 -498 -215 -575 -33 -83 -67 -181 -64 -184 5 -5 614 -4 620 1 5 6 93 259
99 287 2 9 26 79 52 156 l48 140 515 2 c388 1 516 -1 522 -10 4 -7 49 -136 99
-287 50 -151 95 -279 99 -284 6 -6 382 -11 597 -7 l32 1 -21 53 c-11 28 -24
61 -29 72 -16 36 -120 320 -124 337 -2 9 -8 26 -14 37 -6 11 -25 60 -42 108
-17 48 -36 102 -43 118 -8 17 -26 64 -41 105 -48 132 -97 264 -111 297 -8 17
-14 37 -14 45 0 8 -4 18 -8 24 -5 5 -19 38 -31 74 -12 36 -26 75 -32 88 -5 12
-13 32 -18 45 -6 12 -82 218 -171 457 -89 239 -165 444 -170 455 -4 11 -18 47
-30 80 -12 33 -26 69 -31 80 -4 11 -31 83 -59 160 -28 77 -55 148 -60 157 -6
10 -10 24 -10 31 0 33 -45 40 -285 41 -130 0 -244 -2 -253 -5z m403 -1179 c53
-157 98 -289 99 -295 2 -5 6 -17 9 -25 31 -82 96 -285 92 -288 -7 -7 -685 -8
-697 -1 -9 6 90 329 122 404 5 11 50 146 101 300 50 154 94 285 98 290 3 6 6
16 7 23 8 51 18 42 45 -38 15 -47 71 -213 124 -370z"/>
<path d="M3168 6620 l-22 -17 0 -1408 c-1 -774 2 -1409 7 -1412 6 -3 352 -6
518 -4 l46 1 -1 1415 c-1 1146 -3 1416 -14 1427 -10 10 -72 13 -263 14 -223 1
-252 -1 -271 -16z"/>
<path d="M4937 5944 c-1 -1 -27 -5 -57 -8 -30 -3 -64 -7 -75 -10 -206 -45
-370 -132 -492 -259 -152 -159 -244 -360 -281 -617 -8 -58 -8 -373 0 -425 23
-143 61 -272 104 -358 142 -281 369 -451 684 -512 75 -14 364 -15 420 -1 14 3
41 9 60 13 45 9 40 8 73 21 16 7 33 12 38 12 13 0 144 67 193 98 209 137 364
387 412 667 14 86 18 140 17 280 -1 151 -3 188 -17 260 -3 17 -8 44 -10 61
-36 209 -189 462 -351 580 -22 16 -45 34 -52 40 -7 7 -54 32 -105 57 -87 42
-204 77 -308 93 -43 6 -248 13 -253 8z m228 -479 c208 -73 308 -288 300 -645
-3 -120 -10 -192 -30 -275 -9 -42 -21 -75 -45 -123 -73 -148 -200 -225 -367
-224 -226 3 -366 146 -420 429 -10 51 -10 356 0 413 18 105 33 155 69 229 33
67 100 141 152 168 98 51 241 63 341 28z"/>
<path d="M1067 3064 c-1 -1 -34 -5 -73 -8 -232 -20 -404 -95 -549 -241 -131
-131 -175 -243 -171 -430 4 -181 50 -268 216 -415 21 -19 65 -46 110 -68 19
-9 37 -19 40 -22 11 -11 225 -87 270 -97 45 -9 55 -11 58 -13 3 -3 12 -6 57
-14 161 -32 326 -92 374 -138 113 -106 66 -275 -92 -332 -61 -21 -214 -30
-290 -16 -150 29 -251 126 -271 260 l-6 45 -253 -2 c-138 -1 -260 -2 -270 -2
-16 -1 -17 -8 -12 -58 17 -152 80 -277 200 -398 38 -38 166 -134 182 -136 5
-1 26 -10 48 -21 63 -33 154 -62 260 -84 41 -8 162 -18 230 -17 66 0 270 17
270 23 0 2 12 5 55 13 79 16 194 66 280 121 74 48 170 135 170 154 0 7 4 12 9
12 18 0 81 144 94 215 44 234 -44 452 -236 584 -81 55 -268 132 -379 155 -13
3 -50 12 -84 20 -34 8 -72 17 -85 20 -77 15 -136 28 -149 33 -8 4 -17 7 -20 8
-75 20 -154 61 -188 99 -93 103 -38 267 109 321 41 15 78 19 154 19 87 -1 109
-4 159 -27 87 -40 137 -106 151 -200 4 -26 12 -48 19 -48 35 -4 533 -4 544 -1
10 3 12 20 8 61 -12 115 -38 191 -96 278 -33 50 -150 173 -164 173 -3 0 -24
13 -48 29 -71 48 -217 106 -292 116 -15 3 -35 7 -45 10 -26 8 -287 25 -294 19z"/>
<path d="M3207 3063 c-1 -1 -38 -4 -82 -7 -87 -6 -119 -11 -180 -28 -22 -6
-45 -11 -52 -12 -7 -1 -16 -5 -19 -9 -4 -4 -14 -7 -21 -7 -23 0 -157 -65 -216
-104 -49 -33 -105 -83 -164 -148 -36 -40 -91 -150 -106 -213 -24 -93 -28 -145
-14 -146 41 -4 557 -3 558 1 0 3 2 19 4 35 13 112 114 202 240 212 208 16 308
-36 360 -190 15 -45 28 -246 16 -248 -4 -1 -98 -2 -211 -4 -186 -2 -258 -7
-330 -20 -14 -3 -41 -7 -60 -10 -51 -7 -95 -19 -180 -50 -41 -15 -83 -29 -92
-32 -10 -3 -18 -9 -18 -14 0 -5 -5 -9 -11 -9 -34 0 -160 -107 -218 -185 -36
-47 -89 -163 -96 -209 -2 -12 -7 -39 -10 -61 -9 -51 -9 -153 0 -213 34 -234
216 -426 484 -508 24 -7 47 -13 50 -12 3 0 8 -1 11 -2 28 -11 237 -15 290 -6
72 13 134 29 159 42 14 8 30 14 35 14 17 0 123 70 171 114 27 24 51 43 54 41
2 -2 7 -25 12 -50 5 -26 17 -65 27 -88 l19 -42 284 0 284 1 -1 24 c-1 14 -11
52 -24 85 -12 33 -24 70 -26 82 -2 13 -6 35 -10 50 -13 67 -16 170 -18 708 -1
314 -6 585 -10 603 -4 19 -9 43 -11 55 -7 59 -55 172 -98 237 -37 54 -154 170
-172 170 -7 0 -18 7 -25 15 -13 15 -48 34 -134 69 -63 26 -185 55 -265 62 -74
6 -181 11 -184 7z m313 -1202 c13 -1 15 -27 15 -184 -1 -204 -2 -207 -80 -276
-33 -29 -155 -97 -155 -87 0 3 -15 -1 -32 -8 -53 -22 -203 -15 -258 11 -114
55 -160 147 -138 277 27 152 135 240 324 261 32 4 60 8 61 9 1 1 238 -1 263
-3z"/>
<path d="M5568 3059 c-7 -4 -15 -6 -19 -3 -4 2 -29 -1 -56 -7 -26 -6 -56 -12
-66 -14 -93 -19 -217 -89 -306 -172 -60 -55 -81 -70 -82 -56 -1 10 -3 54 -5
97 -6 126 7 120 -294 121 -164 0 -250 -3 -251 -10 -3 -67 0 -2105 4 -2111 4
-7 523 -11 558 -5 3 1 5 339 5 751 l-1 751 37 46 c53 67 113 109 192 134 59
18 85 21 173 16 58 -2 110 -10 116 -16 6 -6 17 -11 25 -11 49 0 131 -105 148
-190 4 -19 8 -358 8 -752 1 -395 5 -721 9 -724 12 -12 556 -10 560 1 7 20 0
1482 -7 1535 -4 30 -12 75 -17 100 -6 25 -13 56 -15 69 -7 36 -50 138 -81 190
-61 105 -186 199 -314 235 -90 25 -295 41 -321 25z"/>
<path d="M6918 1504 c-2 -1 -23 -5 -48 -9 -122 -18 -229 -118 -245 -231 -3
-22 -8 -44 -9 -50 -6 -17 14 -117 31 -154 24 -52 98 -117 160 -140 167 -62
360 5 427 150 26 58 28 196 2 253 -42 94 -137 159 -253 175 -35 5 -64 8 -65 6z"/>
</g>
</svg>
